<svg width="230" height="142" viewBox="0 0 230 142" fill="none" xmlns="http://www.w3.org/2000/svg">
<g clip-path="url(#clip0_1_56)">
<path d="M108.053 34.5028C83.9771 58.3979 83.9771 97.1218 108.053 121.017C132.13 144.912 171.147 144.912 195.223 121.017C211.57 104.793 221.802 54.7396 226.671 24.2866C228.644 11.9659 217.931 1.32139 205.517 3.29124C174.833 8.13632 124.4 18.2792 108.053 34.5028Z" fill="#E6E6E6"/>
<path d="M125.978 52.2926C101.902 76.1877 97.6239 111.204 117.016 129.924C132.536 144.887 171.159 144.924 195.236 121.029C211.582 104.805 218.547 58.8506 226.08 31.0281C229.125 19.7718 228.003 11.3174 216.661 14.3395C188.628 21.8151 142.325 36.0567 125.978 52.2926Z" fill="#CBCBCB"/>
<path d="M108.053 34.5028C83.9771 58.3979 83.9771 97.1218 108.053 121.017C132.13 144.912 171.147 144.912 195.223 121.017C211.57 104.793 221.802 54.7396 226.671 24.2866C228.644 11.9659 217.931 1.32139 205.517 3.29124C174.833 8.13632 124.4 18.2792 108.053 34.5028Z" stroke="#808080" stroke-width="5" stroke-miterlimit="10"/>
<path d="M108.053 121.029L205.579 24.2376" stroke="#808080" stroke-width="5" stroke-miterlimit="10" stroke-linecap="round"/>
<path d="M121.947 34.5029C146.023 58.3979 146.023 97.1218 121.947 121.017C97.8705 144.912 58.853 144.912 34.7768 121.017C18.4178 104.793 8.19803 54.7396 3.31621 24.2866C1.34376 11.9659 12.0566 1.33363 24.4707 3.29123C55.1547 8.13631 105.588 18.2792 121.934 34.5029H121.947Z" fill="#E6E6E6"/>
<path d="M104.034 52.2926C128.111 76.1877 132.388 111.204 112.997 129.924C97.4761 144.887 58.853 144.924 34.7768 121.029C18.4178 104.793 11.4649 58.8384 3.9326 31.0281C0.887628 19.7719 2.00946 11.3174 13.351 14.3395C41.3845 21.8151 87.6878 36.0567 104.034 52.2926Z" fill="#CBCBCB"/>
<path d="M121.947 34.5029C146.023 58.3979 146.023 97.1218 121.947 121.017C97.8705 144.912 58.853 144.912 34.7768 121.017C18.4178 104.793 8.19803 54.7396 3.31621 24.2866C1.34376 11.9659 12.0566 1.33363 24.4707 3.29123C55.1547 8.13631 105.588 18.2792 121.934 34.5029H121.947Z" stroke="#808080" stroke-width="5" stroke-miterlimit="10"/>
<path d="M121.947 121.029L24.4214 24.2376" stroke="#808080" stroke-width="5" stroke-miterlimit="10" stroke-linecap="round"/>
</g>
<defs>
<clipPath id="clip0_1_56">
<rect width="230" height="142" fill="white"/>
</clipPath>
</defs>
</svg>
