<svg width="102" height="102" viewBox="0 0 102 102" fill="none" xmlns="http://www.w3.org/2000/svg">
<g clip-path="url(#clip0_1_146)">
<path d="M98.64 58.23C74.27 58.23 74.27 82.93 74.27 82.93C107.03 77.39 98.64 58.23 98.64 58.23Z" fill="#00B971"/>
<path d="M89.48 23.51C74.27 23.51 74.27 38.77 74.27 38.77C94.71 35.34 89.48 23.51 89.48 23.51Z" fill="#00B971"/>
<path d="M51.9401 35.62C51.9401 35.62 44.8001 60.08 72.7001 67.16C72.7001 67.16 72.7001 35.62 51.9401 35.62Z" fill="#00B971"/>
<path d="M10.8 40.11V61.84L21.28 63.47C21.72 64.99 22.23 66.48 22.81 67.9L16.36 77.96L29.19 91.31L37.5801 85.61C38.7701 86.29 39.0201 86.91 40.2701 87.41L42.6301 100H51.7001V75.95C40.2001 75.95 26.8 64.77 26.8 50.99C26.8 37.21 40.2001 26.04 51.7001 26.04V2H42.6301L40.2401 14.56C38.9901 15.1 38.7801 15.7 37.59 16.39L28.2001 10.66L16.37 24.03L22.84 34.09C22.25 35.51 21.73 36.96 21.29 38.48L10.81 40.11H10.8Z" fill="#00B971"/>
<path d="M14.74 63.47C15.27 64.99 15.9 66.48 16.6 67.9L8.76 77.96L24.35 93.31L34.55 85.61C36 86.29 37.51 86.91 39.03 87.41L40.68 100H51.7V75.95C37.73 75.95 26.39 64.77 26.39 50.99C26.39 37.22 37.73 26.04 51.7 26.04V2H40.68L38.99 14.56C37.47 15.1 36 15.7 34.55 16.39L24.35 8.66L8.76 24.03L16.62 34.09C15.9 35.51 15.27 36.96 14.74 38.48L2 40.11V61.84L14.74 63.47Z" stroke="black" stroke-width="4" stroke-linecap="round" stroke-linejoin="round"/>
<path d="M72.7 100V82.93V67.16V38.77V13.88" stroke="black" stroke-width="4" stroke-linecap="round" stroke-linejoin="round"/>
<path d="M72.7 82.93C72.7 82.93 72.7 51.39 98.58 51.39C98.58 51.39 107.49 75.85 72.7 82.93Z" stroke="black" stroke-width="4" stroke-linecap="round" stroke-linejoin="round"/>
<path d="M72.7 67.16C72.7 67.16 72.7 35.62 46.81 35.62C46.81 35.62 37.91 60.08 72.7 67.16Z" stroke="black" stroke-width="4" stroke-linecap="round" stroke-linejoin="round"/>
<path d="M72.7 38.77C72.7 38.77 72.7 18.4 89.42 18.4C89.42 18.4 95.17 34.19 72.7 38.77Z" stroke="black" stroke-width="4" stroke-linecap="round" stroke-linejoin="round"/>
</g>
<defs>
<clipPath id="clip0_1_146">
<rect width="101.6" height="102" fill="white"/>
</clipPath>
</defs>
</svg>
