<svg width="148" height="89" viewBox="0 0 148 89" fill="none" xmlns="http://www.w3.org/2000/svg">
<g clip-path="url(#clip0_1_129)">
<path d="M116.16 25.57C114.78 25.57 113.42 25.68 112.1 25.86C105.6 11.72 91.86 2 76.02 2C57.45 2 41.83 15.34 37.24 33.47C36.79 33.44 36.31 33.44 35.86 33.44C21.9 33.44 10.58 45.43 10.58 60.23C10.58 75.03 21.9 87 35.86 87H116.16C132.21 87 145.18 73.25 145.18 56.3C145.18 39.35 132.21 25.57 116.16 25.57ZM86.34 40.79C85.07 40.83 83.84 40.95 82.63 41.15C83.7199 40.91 84.84 40.77 85.99 40.77C86.11 40.77 86.22 40.79 86.33 40.79H86.34ZM82.63 74.96C83.8299 75.16 85.07 75.28 86.34 75.32C86.2299 75.32 86.11 75.34 86 75.34C84.85 75.34 83.72 75.21 82.64 74.96H82.63Z" fill="#00B971"/>
<path d="M90.36 87H114.31C131.38 87 145.18 73.25 145.18 56.3C145.18 39.35 131.38 25.57 114.31 25.57C112.84 25.57 111.4 25.68 109.99 25.86C103.07 11.72 88.46 2 71.61 2C51.85 2 35.24 15.34 30.36 33.47C29.88 33.44 29.37 33.44 28.89 33.44C14.04 33.44 2 45.43 2 60.23C2 75.03 14.04 87 28.89 87H90.36Z" stroke="black" stroke-width="4" stroke-linecap="round" stroke-linejoin="round"/>
<path d="M99.48 58.06C99.48 67.6 91.75 75.34 82.22 75.34C72.69 75.34 64.96 67.6 64.96 58.06C64.96 48.52 72.69 40.77 82.22 40.77C91.75 40.77 99.48 48.51 99.48 58.06Z" stroke="black" stroke-width="4" stroke-linecap="round" stroke-linejoin="round"/>
<path d="M59.13 69.58C55.97 73.11 51.37 75.34 46.26 75.34C36.73 75.34 29 67.6 29 58.06C29 48.52 36.73 40.77 46.26 40.77C52.27 40.77 57.55 43.84 60.65 48.5" stroke="black" stroke-width="4" stroke-linecap="round" stroke-linejoin="round"/>
<path d="M103.79 63.82C103.79 59.84 107.01 56.62 110.98 56.62C114.95 56.62 118.18 59.84 118.18 63.82C118.18 63.82 118.18 66.7 115.3 69.58C112.42 72.46 103.79 78.22 103.79 78.22H118.18" stroke="black" stroke-width="4" stroke-linecap="round" stroke-linejoin="round"/>
</g>
<defs>
<clipPath id="clip0_1_129">
<rect width="147.18" height="89" fill="white"/>
</clipPath>
</defs>
</svg>
