<?xml version="1.0" encoding="UTF-8"?>
<svg id="Capa_1" data-name="Capa 1" xmlns="http://www.w3.org/2000/svg" viewBox="0 0 612 612">
  <defs>
    <style>
      .cls-1 {
        fill: none;
        stroke: #010101;
        stroke-linecap: round;
        stroke-linejoin: round;
        stroke-width: 10px;
      }

      .cls-2 {
        fill: #36ae70;
      }
    </style>
  </defs>
  <path class="cls-2" d="m433.72,249.21c-4.15,0-16.21.33-20.18.87-19.51-42.42-52.71-71.58-100.23-71.58-55.72,0-102.56,40.02-116.33,94.41-1.35-.09-2.79-.09-4.15-.09-41.88,0-75.83,35.97-75.83,80.37s33.95,80.31,75.83,80.31h240.89c48.14,0,87.05-41.25,87.05-92.1s-38.92-92.19-87.05-92.19Zm-89.47,45.65c-3.8.12-7.51.49-11.12,1.08,3.26-.73,6.63-1.13,10.09-1.13.35,0,.68.05,1.02.06Zm-11.12,102.52c3.61.59,7.32.96,11.12,1.08-.34,0-.68.06-1.02.06-3.46,0-6.83-.4-10.09-1.13Z"/>
  <g>
    <path class="cls-1" d="m356.31,433.5h71.85c51.21,0,92.61-41.25,92.61-92.1s-41.4-92.19-92.61-92.19c-4.41,0-8.73.33-12.96.87-20.76-42.42-64.59-71.58-115.14-71.58-59.28,0-109.11,40.02-123.75,94.41-1.44-.09-2.97-.09-4.41-.09-44.55,0-80.67,35.97-80.67,80.37s36.12,80.31,80.67,80.31h184.41Z"/>
    <path class="cls-1" d="m383.67,346.68c0,28.62-23.19,51.84-51.78,51.84s-51.78-23.22-51.78-51.84,23.19-51.87,51.78-51.87,51.78,23.22,51.78,51.87Z"/>
    <path class="cls-1" d="m262.62,381.24c-9.48,10.59-23.28,17.28-38.61,17.28-28.59,0-51.78-23.22-51.78-51.84s23.19-51.87,51.78-51.87c18.03,0,33.87,9.21,43.17,23.19"/>
    <path class="cls-1" d="m396.6,363.96c0-11.94,9.66-21.6,21.57-21.6s21.6,9.66,21.6,21.6c0,0,0,8.64-8.64,17.28-8.64,8.64-34.53,25.92-34.53,25.92h43.17"/>
  </g>
</svg>