<?xml version="1.0" encoding="UTF-8"?>
<svg id="Capa_1" data-name="Capa 1" xmlns="http://www.w3.org/2000/svg" viewBox="0 0 612 612">
  <defs>
    <style>
      .cls-1 {
        fill: none;
        stroke: #010101;
        stroke-linecap: round;
        stroke-linejoin: round;
        stroke-width: 10px;
      }

      .cls-2 {
        fill: #36ae70;
      }
    </style>
  </defs>
  <g>
    <polygon class="cls-2" points="459.54 336.12 459.54 362.52 365.45 362.52 273.87 362.52 174 362.52 174 336.12 264.74 336.12 370.86 336.12 459.54 336.12"/>
    <polygon class="cls-2" points="447.75 302.91 459.54 336.12 364.17 336.12 357.24 302.91 447.75 302.91"/>
    <polygon class="cls-2" points="435.96 269.73 447.75 302.91 357.24 302.91 350.34 269.73 435.96 269.73"/>
    <polygon class="cls-2" points="424.53 237.57 435.96 269.73 350.34 269.73 343.62 237.57 424.53 237.57"/>
    <polygon class="cls-2" points="379.86 428.91 379.86 452.25 255 452.25 255 428.91 317.42 428.91 379.86 428.91"/>
    <polygon class="cls-2" points="357.24 302.91 364.17 336.12 250.05 336.12 256.98 302.91 357.24 302.91"/>
    <polygon class="cls-2" points="358.35 362.52 358.35 388.05 320.16 388.05 282 388.05 282 362.52 358.35 362.52"/>
    <polygon class="cls-2" points="350.34 269.73 357.24 302.91 256.98 302.91 263.88 269.73 350.34 269.73"/>
    <polygon class="cls-2" points="350.34 269.73 263.88 269.73 270.6 237.57 343.62 237.57 350.34 269.73"/>
    <polygon class="cls-2" points="292.14 237.57 285.42 269.73 197.58 269.73 209.01 237.57 292.14 237.57"/>
    <polygon class="cls-2" points="285.42 269.73 278.52 302.91 185.79 302.91 197.58 269.73 285.42 269.73"/>
    <polygon class="cls-2" points="278.52 302.91 271.59 336.12 174 336.12 185.79 302.91 278.52 302.91"/>
  </g>
  <g>
    <polyline class="cls-1" points="152.46 336.12 164.25 302.91 176.04 269.73 187.47 237.57 270.6 237.57 343.62 237.57 424.53 237.57 435.96 269.73 447.75 302.91 459.54 336.12"/>
    <polygon class="cls-1" points="459.54 336.12 459.54 362.52 358.35 362.52 259.86 362.52 152.46 362.52 152.46 336.12 250.05 336.12 364.17 336.12 459.54 336.12"/>
    <polygon class="cls-1" points="379.86 428.91 309.09 428.91 238.35 428.91 238.35 452.25 379.86 452.25 379.86 428.91"/>
    <polyline class="cls-1" points="309.09 388.05 259.86 388.05 259.86 362.52"/>
    <polyline class="cls-1" points="309.09 428.91 309.09 388.05 358.35 388.05 358.35 362.52"/>
    <polyline class="cls-1" points="176.04 269.73 263.88 269.73 350.34 269.73 435.96 269.73"/>
    <polyline class="cls-1" points="164.25 302.91 256.98 302.91 357.24 302.91 447.75 302.91"/>
    <polyline class="cls-1" points="270.6 237.57 263.88 269.73 256.98 302.91 250.05 336.12"/>
    <polyline class="cls-1" points="343.62 237.57 350.34 269.73 357.24 302.91 364.17 336.12"/>
    <path class="cls-1" d="m338.19,159.75c0,16.14-13.02,29.25-29.1,29.25s-29.07-13.11-29.07-29.25"/>
    <line class="cls-1" x1="283.71" y1="200.67" x2="274.17" y2="215.07"/>
    <line class="cls-1" x1="263.94" y1="179.97" x2="248.37" y2="192.03"/>
    <line class="cls-1" x1="338.19" y1="200.67" x2="347.73" y2="215.07"/>
    <line class="cls-1" x1="357.96" y1="179.97" x2="373.53" y2="192.03"/>
    <line class="cls-1" x1="309.09" y1="203.67" x2="309.09" y2="218.07"/>
  </g>
</svg>