<svg width="170" height="196" viewBox="0 0 170 196" fill="none" xmlns="http://www.w3.org/2000/svg">
<g clip-path="url(#clip0_1_40)">
<path d="M94.06 108.546C119.731 108.546 140.541 84.9549 140.541 55.8537C140.541 26.7525 119.731 3.16129 94.06 3.16129C68.3894 3.16129 47.5793 26.7525 47.5793 55.8537C47.5793 84.9549 68.3894 108.546 94.06 108.546Z" fill="#2D7DD2"/>
<path d="M14.4076 192.839C14.4076 147.569 48.64 110.885 90.8779 110.885C133.116 110.885 167.348 147.582 167.348 192.839" fill="#2D7DD2"/>
<path d="M87.3423 108.546C116.402 108.546 139.96 84.9549 139.96 55.8537C139.96 26.7525 116.402 3.16129 87.3423 3.16129C58.2825 3.16129 34.7248 26.7525 34.7248 55.8537C34.7248 84.9549 58.2825 108.546 87.3423 108.546Z" stroke="black" stroke-width="5" stroke-miterlimit="10"/>
<path d="M166.843 192.839C166.843 147.569 130.199 110.885 85.0063 110.885C39.8136 110.885 3.1568 147.569 3.1568 192.839H166.843Z" stroke="black" stroke-width="5" stroke-linecap="round" stroke-linejoin="round"/>
</g>
<defs>
<clipPath id="clip0_1_40">
<rect width="170" height="196" fill="white"/>
</clipPath>
</defs>
</svg>
