<svg width="25" height="25" viewBox="0 0 25 25" fill="none" xmlns="http://www.w3.org/2000/svg">
<path d="M6.55016 0H4.1751C1.43754 0 0 1.43754 0 4.1626V6.53766C0 9.26273 1.43754 10.7003 4.1626 10.7003H6.53766C9.26273 10.7003 10.7003 9.26273 10.7003 6.53766V4.1626C10.7128 1.43754 9.27523 0 6.55016 0Z" fill="white"/>
<path d="M20.8375 0H18.4624C15.7373 0 14.2998 1.43754 14.2998 4.1626V6.53766C14.2998 9.26273 15.7373 10.7003 18.4624 10.7003H20.8375C23.5625 10.7003 25.0001 9.26273 25.0001 6.53766V4.1626C25.0001 1.43754 23.5625 0 20.8375 0Z" fill="white"/>
<path d="M20.8375 14.2872H18.4624C15.7373 14.2872 14.2998 15.7247 14.2998 18.4498V20.8249C14.2998 23.5499 15.7373 24.9875 18.4624 24.9875H20.8375C23.5625 24.9875 25.0001 23.5499 25.0001 20.8249V18.4498C25.0001 15.7247 23.5625 14.2872 20.8375 14.2872Z" fill="white"/>
<path d="M6.55016 14.2872H4.1751C1.43754 14.2872 0 15.7247 0 18.4498V20.8249C0 23.5624 1.43754 25 4.1626 25H6.53766C9.26273 25 10.7003 23.5624 10.7003 20.8374V18.4623C10.7128 15.7247 9.27523 14.2872 6.55016 14.2872Z" fill="white"/>
</svg>
