<svg width="25" height="26" viewBox="0 0 25 26" fill="none" xmlns="http://www.w3.org/2000/svg">
<path d="M19.4437 7.2227C19.3561 7.21018 19.2685 7.21018 19.1808 7.2227C17.2406 7.16011 15.7009 5.57036 15.7009 3.61761C15.7009 1.6273 17.3157 0 19.3185 0C21.3088 0 22.9361 1.61478 22.9361 3.61761C22.9236 5.57036 21.384 7.16011 19.4437 7.2227Z" fill="white"/>
<path d="M23.5276 15.8979C22.1256 16.8368 20.1604 17.1873 18.3453 16.9494C18.821 15.923 19.0713 14.7839 19.0838 13.5822C19.0838 12.3304 18.8085 11.1412 18.2827 10.1023C20.1353 9.8519 22.1006 10.2024 23.5151 11.1412C25.4929 12.4431 25.4929 14.5836 23.5276 15.8979Z" fill="white"/>
<path d="M5.56292 7.2227C5.65054 7.21018 5.73817 7.21018 5.82579 7.2227C7.76603 7.16011 9.3057 5.57036 9.3057 3.61761C9.3057 1.61478 7.69093 0 5.6881 0C3.69779 0 2.08301 1.61478 2.08301 3.61761C2.08301 5.57036 3.62268 7.16011 5.56292 7.2227Z" fill="white"/>
<path d="M5.7018 13.5824C5.7018 14.7966 5.96467 15.9482 6.44034 16.9872C4.67535 17.175 2.83525 16.7994 1.48334 15.9107C-0.494448 14.5963 -0.494448 12.4558 1.48334 11.1415C2.82274 10.2402 4.7129 9.87716 6.49041 10.0775C5.97719 11.1289 5.7018 12.3181 5.7018 13.5824Z" fill="white"/>
<path d="M12.6738 17.362C12.5736 17.3495 12.461 17.3495 12.3483 17.362C10.0451 17.2869 8.20496 15.3968 8.20496 13.0685C8.21747 10.6901 10.1327 8.76239 12.5236 8.76239C14.9019 8.76239 16.8297 10.6901 16.8297 13.0685C16.8171 15.3968 14.9896 17.2869 12.6738 17.362Z" fill="white"/>
<path d="M8.60549 19.9539C6.71532 21.2182 6.71532 23.2962 8.60549 24.5479C10.7586 25.9875 14.2885 25.9875 16.4416 24.5479C18.3317 23.2836 18.3317 21.2057 16.4416 19.9539C14.3011 18.5144 10.7711 18.5144 8.60549 19.9539Z" fill="white"/>
</svg>
