<svg width="60" height="60" viewBox="0 0 60 60" fill="none" xmlns="http://www.w3.org/2000/svg">
<g id="LOGO BLANCO" clip-path="url(#clip0_70_1137)">
<path id="Vector" d="M51.213 8.787C39.497 -2.929 20.502 -2.929 8.787 8.787C-2.929 20.503 -2.929 39.498 8.787 51.213C20.503 62.929 39.498 62.929 51.213 51.213C62.929 39.497 62.929 20.502 51.213 8.787ZM14.178 49.358L28.707 34.829C30.375 35.274 32.228 34.844 33.536 33.535C35.489 31.582 35.489 28.417 33.536 26.464C31.583 24.511 28.418 24.511 26.465 26.464C25.157 27.772 24.726 29.625 25.171 31.293L10.642 45.822C2.596 36.002 3.156 21.489 12.322 12.322C21.488 3.156 36.002 2.596 45.822 10.642L41.376 15.088C35.282 13.595 20.585 11.131 12.322 19.393C1.715 30 12.322 40.606 12.322 40.606L15.858 37.07C15.858 37.07 8.787 29.999 15.858 22.928C22.929 15.857 40.607 19.392 40.607 19.392C40.607 19.392 44.143 37.07 37.071 44.141C30 51.212 22.929 44.141 22.929 44.141L19.393 47.677C19.393 47.677 30 58.284 40.606 47.677C48.868 39.415 46.404 24.718 44.911 18.623L49.357 14.177C57.403 23.997 56.843 38.51 47.677 47.677C38.511 56.843 23.997 57.403 14.177 49.357L14.178 49.358Z" fill="white"/>
</g>
<defs>
<clipPath id="clip0_70_1137">
<rect width="60" height="60" fill="white"/>
</clipPath>
</defs>
</svg>
