<svg width="25" height="24" viewBox="0 0 25 24" fill="none" xmlns="http://www.w3.org/2000/svg">
<path d="M18.75 0H6.25C2.5 0 0 2.5 0 6.25V13.75C0 17.5 2.5 20 6.25 20V22.6625C6.25 23.6625 7.3625 24.2625 8.1875 23.7L13.75 20H18.75C22.5 20 25 17.5 25 13.75V6.25C25 2.5 22.5 0 18.75 0ZM12.5 15.2125C11.975 15.2125 11.5625 14.7875 11.5625 14.275C11.5625 13.7625 11.975 13.3375 12.5 13.3375C13.025 13.3375 13.4375 13.7625 13.4375 14.275C13.4375 14.7875 13.025 15.2125 12.5 15.2125ZM14.075 10.025C13.5875 10.35 13.4375 10.5625 13.4375 10.9125V11.175C13.4375 11.6875 13.0125 12.1125 12.5 12.1125C11.9875 12.1125 11.5625 11.6875 11.5625 11.175V10.9125C11.5625 9.4625 12.625 8.75 13.025 8.475C13.4875 8.1625 13.6375 7.95 13.6375 7.625C13.6375 7 13.125 6.4875 12.5 6.4875C11.875 6.4875 11.3625 7 11.3625 7.625C11.3625 8.1375 10.9375 8.5625 10.425 8.5625C9.9125 8.5625 9.4875 8.1375 9.4875 7.625C9.4875 5.9625 10.8375 4.6125 12.5 4.6125C14.1625 4.6125 15.5125 5.9625 15.5125 7.625C15.5125 9.05 14.4625 9.76251 14.075 10.025Z" fill="white"/>
</svg>
