<svg width="230" height="138" viewBox="0 0 230 138" fill="none" xmlns="http://www.w3.org/2000/svg">
<g clip-path="url(#clip0_1_45)">
<path d="M70.6516 3.02631C41.4245 3.02631 17.7394 13.5942 17.7394 26.6316H123.564C123.564 13.5942 99.8787 3.02631 70.6516 3.02631Z" fill="#F3A430"/>
<path d="M17.7394 26.6316V111.368C17.7394 124.406 41.4245 134.974 70.6516 134.974C99.8787 134.974 123.564 124.406 123.564 111.368V26.6316H17.7394Z" fill="#F3A430"/>
<path d="M64.2287 50.2368C98.0121 50.2368 125.399 39.6684 125.399 26.6316C125.399 13.5948 98.0121 3.02631 64.2287 3.02631C30.4453 3.02631 3.05851 13.5948 3.05851 26.6316C3.05851 39.6684 30.4453 50.2368 64.2287 50.2368Z" stroke="black" stroke-width="5" stroke-miterlimit="10"/>
<path d="M125.399 26.6316V111.368C125.399 124.406 98.0069 134.974 64.2287 134.974C30.4505 134.974 3.05851 124.406 3.05851 111.368V26.6316" stroke="black" stroke-width="5" stroke-miterlimit="10"/>
<path d="M125.399 84.7368C125.399 97.7742 98.0069 108.342 64.2287 108.342C30.4505 108.342 3.05851 97.7742 3.05851 84.7368" stroke="black" stroke-width="5" stroke-miterlimit="10"/>
<path d="M125.399 55.6842C125.399 68.7216 98.0069 79.2895 64.2287 79.2895C30.4505 79.2895 3.05851 68.7216 3.05851 55.6842" stroke="black" stroke-width="5" stroke-miterlimit="10"/>
<path d="M165.771 134.974C199.555 134.974 226.941 107.875 226.941 74.4474C226.941 41.0196 199.555 13.9211 165.771 13.9211C131.988 13.9211 104.601 41.0196 104.601 74.4474C104.601 107.875 131.988 134.974 165.771 134.974Z" fill="#E6E6E6"/>
<path d="M172.806 134.974C202.704 134.974 226.941 107.875 226.941 74.4474C226.941 41.0196 202.704 13.9211 172.806 13.9211C142.908 13.9211 118.67 41.0196 118.67 74.4474C118.67 107.875 142.908 134.974 172.806 134.974Z" fill="#F3A430"/>
<path d="M165.771 134.974C199.555 134.974 226.941 107.875 226.941 74.4474C226.941 41.0196 199.555 13.9211 165.771 13.9211C131.988 13.9211 104.601 41.0196 104.601 74.4474C104.601 107.875 131.988 134.974 165.771 134.974Z" stroke="black" stroke-width="5" stroke-miterlimit="10"/>
</g>
<defs>
<clipPath id="clip0_1_45">
<rect width="230" height="138" fill="white"/>
</clipPath>
</defs>
</svg>
