<svg width="107" height="102" viewBox="0 0 107 102" fill="none" xmlns="http://www.w3.org/2000/svg">
<g clip-path="url(#clip0_1_158)">
<path d="M104.36 60.79V69.59H73.0001H42.4701H9.18005V60.79H39.4301H74.8001H104.36Z" fill="#00B971"/>
<path d="M100.43 49.72L104.36 60.79H72.57L70.26 49.72H100.43Z" fill="#00B971"/>
<path d="M96.5001 38.66L100.43 49.72H70.2601L67.9601 38.66H96.5001Z" fill="#00B971"/>
<path d="M92.6901 27.94L96.5001 38.66H67.9601L65.7201 27.94H92.6901Z" fill="#00B971"/>
<path d="M77.8001 91.72V99.5H36.1801V91.72H56.9901H77.8001Z" fill="#00B971"/>
<path d="M70.26 49.72L72.57 60.79H34.53L36.84 49.72H70.26Z" fill="#00B971"/>
<path d="M70.6301 69.59V78.1H57.9001H45.1801V69.59H70.6301Z" fill="#00B971"/>
<path d="M67.9601 38.66L70.2601 49.72H36.8401L39.1401 38.66H67.9601Z" fill="#00B971"/>
<path d="M67.96 38.66H39.14L41.38 27.94H65.72L67.96 38.66Z" fill="#00B971"/>
<path d="M48.56 27.94L46.32 38.66H17.04L20.85 27.94H48.56Z" fill="#00B971"/>
<path d="M46.3201 38.66L44.0201 49.72H13.1101L17.0401 38.66H46.3201Z" fill="#00B971"/>
<path d="M44.0201 49.72L41.7101 60.79H9.18005L13.1101 49.72H44.0201Z" fill="#00B971"/>
<path d="M2 60.79L5.93 49.72L9.86 38.66L13.67 27.94H41.38H65.72H92.69L96.5 38.66L100.43 49.72L104.36 60.79" stroke="black" stroke-width="4" stroke-linecap="round" stroke-linejoin="round"/>
<path d="M104.36 60.79V69.59H70.63H37.8H2V60.79H34.53H72.57H104.36Z" stroke="black" stroke-width="4" stroke-linecap="round" stroke-linejoin="round"/>
<path d="M77.8 91.72H54.21H30.63V99.5H77.8V91.72Z" stroke="black" stroke-width="4" stroke-linecap="round" stroke-linejoin="round"/>
<path d="M54.21 78.1H37.8V69.59" stroke="black" stroke-width="4" stroke-linecap="round" stroke-linejoin="round"/>
<path d="M54.21 91.72V78.1H70.63V69.59" stroke="black" stroke-width="4" stroke-linecap="round" stroke-linejoin="round"/>
<path d="M9.85999 38.66H39.14H67.96H96.5" stroke="black" stroke-width="4" stroke-linecap="round" stroke-linejoin="round"/>
<path d="M5.93005 49.72H36.8401H70.2601H100.43" stroke="black" stroke-width="4" stroke-linecap="round" stroke-linejoin="round"/>
<path d="M41.38 27.94L39.14 38.66L36.84 49.72L34.53 60.79" stroke="black" stroke-width="4" stroke-linecap="round" stroke-linejoin="round"/>
<path d="M65.72 27.94L67.96 38.66L70.26 49.72L72.57 60.79" stroke="black" stroke-width="4" stroke-linecap="round" stroke-linejoin="round"/>
<path d="M63.91 2C63.91 7.38 59.57 11.75 54.21 11.75C48.85 11.75 44.52 7.38 44.52 2" stroke="black" stroke-width="4" stroke-linecap="round" stroke-linejoin="round"/>
<path d="M45.7499 15.64L42.5699 20.44" stroke="black" stroke-width="4" stroke-linecap="round" stroke-linejoin="round"/>
<path d="M39.16 8.74001L33.97 12.76" stroke="black" stroke-width="4" stroke-linecap="round" stroke-linejoin="round"/>
<path d="M63.91 15.64L67.09 20.44" stroke="black" stroke-width="4" stroke-linecap="round" stroke-linejoin="round"/>
<path d="M70.5 8.74001L75.69 12.76" stroke="black" stroke-width="4" stroke-linecap="round" stroke-linejoin="round"/>
<path d="M54.21 16.64V21.44" stroke="black" stroke-width="4" stroke-linecap="round" stroke-linejoin="round"/>
</g>
<defs>
<clipPath id="clip0_1_158">
<rect width="106.36" height="101.5" fill="white"/>
</clipPath>
</defs>
</svg>
