<?xml version="1.0" encoding="UTF-8"?>
<svg id="Capa_1" data-name="Capa 1" xmlns="http://www.w3.org/2000/svg" viewBox="0 0 612 612">
  <defs>
    <style>
      .cls-1 {
        fill: none;
        stroke: #010101;
        stroke-linecap: round;
        stroke-linejoin: round;
        stroke-width: 10px;
      }

      .cls-2 {
        fill: #36ae70;
      }
    </style>
  </defs>
  <g>
    <path class="cls-2" d="m217.83,372.9v61.02c0,2.22-.5,4.32-1.43,6.18-2.39,4.98-7.62,8.4-13.65,8.4h-38.92v-90.15h38.92c6.65,0,12.31,4.14,14.3,9.93.5,1.44.78,3,.78,4.62Z"/>
    <path class="cls-2" d="m358.32,261.66c0,31.41-19.36,56.88-43.26,56.88s-43.23-25.47-43.23-56.88c0-19.49,16.65-52.6,29.29-74.91,3.22-5.68,6.17-10.66,8.53-14.54,3.3-5.44,48.68,58.04,48.68,89.45Z"/>
    <path class="cls-2" d="m205.08,253.38c0,18.84-12.56,34.08-28.02,34.08s-27.99-15.24-27.99-34.08,27.99-58.83,27.99-58.83c0,0,28.02,40.02,28.02,58.83Z"/>
  </g>
  <g>
    <path class="cls-1" d="m216.45,440.1s89.82.45,125.22-1.17c35.43-1.65,61.56-27.75,61.56-27.75l68.67-65.28c8.37-9.03.27-39.48-19.95-22.08l-44.1,33.03c-15.03,11.25-33.3,17.31-52.08,17.31h-51.66"/>
    <path class="cls-1" d="m217.08,368.28l2.07.03c37.98.39,37.17-27.75,73.5-25.68h26.94c25.98.12,30.99,31.53,20.67,31.53"/>
    <path class="cls-1" d="m217.08,368.28c-1.92-5.79-7.38-9.93-13.8-9.93h-64.29v90.15h64.29c5.82,0,10.86-3.42,13.17-8.4.9-1.86,1.38-3.96,1.38-6.18v-61.02c0-1.62-.27-3.18-.75-4.62Z"/>
    <path class="cls-1" d="m358.32,261.66c0,31.41-25.5,56.88-56.97,56.88s-56.94-25.47-56.94-56.88,56.94-98.16,56.94-98.16c0,0,56.97,66.75,56.97,98.16Z"/>
    <path class="cls-1" d="m205.08,253.38c0,18.84-15.3,34.08-34.14,34.08s-34.11-15.24-34.11-34.08,34.11-58.83,34.11-58.83c0,0,34.14,40.02,34.14,58.83Z"/>
    <path class="cls-2" d="m460.83,253.38c0,18.84-12.56,34.08-28.02,34.08s-27.99-15.24-27.99-34.08,27.99-58.83,27.99-58.83c0,0,28.02,40.02,28.02,58.83Z"/>
    <path class="cls-1" d="m460.83,253.38c0,18.84-15.3,34.08-34.14,34.08s-34.11-15.24-34.11-34.08,34.11-58.83,34.11-58.83c0,0,34.14,40.02,34.14,58.83Z"/>
  </g>
</svg>