<?xml version="1.0" encoding="UTF-8"?>
<svg id="Capa_1" data-name="Capa 1" xmlns="http://www.w3.org/2000/svg" viewBox="0 0 612 612">
  <defs>
    <style>
      .cls-1 {
        fill: #fff;
      }

      .cls-2 {
        fill: none;
        stroke: #808181;
        stroke-linecap: round;
        stroke-linejoin: round;
        stroke-width: 10px;
      }

      .cls-3 {
        fill: #cccccb;
      }
    </style>
  </defs>
  <g>
    <rect class="cls-1" x="177.57" y="178.5" width="36.69" height="255"/>
    <path class="cls-1" d="m312.12,255.21v-13.91c0-2.83-3.16-4.46-5.41-2.79l-82.59,61.6c-1.85,1.38-1.85,4.19,0,5.57l82.59,61.6c2.24,1.67,5.41.04,5.41-2.79v-13.91h122.31v-95.37h-122.31Z"/>
  </g>
  <g>
    <rect class="cls-3" x="191.55" y="178.5" width="22.71" height="255"/>
    <path class="cls-3" d="m329.51,255.21l-17.39-5.61-58.09,50.51c-1.59,1.38-1.59,4.19,0,5.57l58.09,50.51,17.39-5.61h104.92v-95.37h-104.92Z"/>
  </g>
  <g>
    <rect class="cls-2" x="177.57" y="178.5" width="36.69" height="255"/>
    <path class="cls-2" d="m312.12,255.21v-13.91c0-2.83-3.16-4.46-5.41-2.79l-82.59,61.6c-1.85,1.38-1.85,4.19,0,5.57l82.59,61.6c2.24,1.67,5.41.04,5.41-2.79v-13.91h122.31v-95.37h-122.31Z"/>
  </g>
</svg>