<?xml version="1.0" encoding="UTF-8"?>
<svg id="Capa_1" data-name="Capa 1" xmlns="http://www.w3.org/2000/svg" viewBox="0 0 612 612">
  <defs>
    <style>
      .cls-1 {
        fill: #fff;
      }

      .cls-2 {
        fill: #36ae70;
      }

      .cls-3 {
        stroke-linecap: round;
      }

      .cls-3, .cls-4 {
        fill: none;
        stroke: #1d1d1b;
        stroke-miterlimit: 10;
        stroke-width: 10px;
      }
    </style>
  </defs>
  <path class="cls-1" d="m291.92,230.12c-48.82,48.82-48.82,127.96,0,176.78,48.82,48.82,127.96,48.82,176.78,0,33.15-33.15,53.89-135.44,63.78-197.65,4-25.18-17.73-46.91-42.91-42.91-62.22,9.89-164.5,30.63-197.65,63.78Z"/>
  <path class="cls-2" d="m328.25,266.45c-48.82,48.82-57.49,120.38-18.16,158.61,31.46,30.59,109.8,30.65,158.61-18.16,33.15-33.15,47.27-127.06,62.54-183.9,6.18-23,3.91-40.27-19.09-34.09-56.84,15.27-150.74,44.38-183.9,77.54Z"/>
  <path class="cls-4" d="m291.92,230.12c-48.82,48.82-48.82,127.96,0,176.78,48.82,48.82,127.96,48.82,176.78,0,33.15-33.15,53.89-135.44,63.78-197.65,4-25.18-17.73-46.91-42.91-42.91-62.22,9.89-164.5,30.63-197.65,63.78Z"/>
  <line class="cls-3" x1="291.92" y1="406.9" x2="489.68" y2="209.14"/>
  <g>
    <path class="cls-1" d="m320.08,230.12c48.82,48.82,48.82,127.96,0,176.78-48.82,48.82-127.96,48.82-176.78,0-33.15-33.15-53.89-135.44-63.78-197.65-4-25.18,17.73-46.91,42.91-42.91,62.22,9.89,164.5,30.63,197.65,63.78Z"/>
    <path class="cls-2" d="m283.75,266.45c48.82,48.82,57.49,120.38,18.16,158.61-31.46,30.59-109.8,30.65-158.61-18.16-33.15-33.15-47.27-127.06-62.54-183.9-6.18-23-3.91-40.27,19.09-34.09,56.84,15.27,150.74,44.38,183.9,77.54Z"/>
    <path class="cls-4" d="m320.08,230.12c48.82,48.82,48.82,127.96,0,176.78-48.82,48.82-127.96,48.82-176.78,0-33.15-33.15-53.89-135.44-63.78-197.65-4-25.18,17.73-46.91,42.91-42.91,62.22,9.89,164.5,30.63,197.65,63.78Z"/>
    <line class="cls-3" x1="320.08" y1="406.9" x2="122.32" y2="209.14"/>
  </g>
</svg>