<?xml version="1.0" encoding="UTF-8"?>
<svg id="Capa_1" data-name="Capa 1" xmlns="http://www.w3.org/2000/svg" viewBox="0 0 612 612">
  <defs>
    <style>
      .cls-1 {
        fill: none;
        stroke: #010101;
        stroke-linecap: round;
        stroke-linejoin: round;
        stroke-width: 10px;
      }

      .cls-2 {
        fill: #36ae70;
      }
    </style>
  </defs>
  <g>
    <path class="cls-2" d="m449.52,327.69c-73.11,0-73.11,74.1-73.11,74.1,98.28-16.63,73.11-74.1,73.11-74.1Z"/>
    <path class="cls-2" d="m422.04,223.52c-45.63,0-45.63,45.79-45.63,45.79,61.32-10.3,45.63-45.79,45.63-45.79Z"/>
    <path class="cls-2" d="m309.41,259.86s-21.41,73.38,62.28,94.62c0,0,0-94.62-62.28-94.62Z"/>
    <path class="cls-2" d="m186,273.33v65.19s31.45,4.89,31.45,4.89c1.31,4.56,2.86,9.03,4.59,13.29l-19.35,30.18,38.49,40.05,25.18-17.1c3.58,2.04,4.31,3.9,8.06,5.4l7.07,37.77h27.2s0-72.15,0-72.15c-34.49,0-74.69-33.54-74.69-74.88,0-41.31,40.21-74.85,74.69-74.85v-72.12s-27.2,0-27.2,0l-7.17,37.68c-3.75,1.62-4.38,3.42-7.96,5.49l-28.18-17.19-35.49,40.11,19.4,30.18c-1.78,4.26-3.33,8.61-4.64,13.17l-31.45,4.89Z"/>
  </g>
  <g>
    <path class="cls-1" d="m197.82,343.41c1.59,4.56,3.48,9.03,5.58,13.29l-23.52,30.18,46.77,46.05,30.6-23.1c4.35,2.04,8.88,3.9,13.44,5.4l4.95,37.77h33.06s0-72.15,0-72.15c-41.91,0-75.93-33.54-75.93-74.88,0-41.31,34.02-74.85,75.93-74.85v-72.12s-33.06,0-33.06,0l-5.07,37.68c-4.56,1.62-8.97,3.42-13.32,5.49l-30.6-23.19-46.77,46.11,23.58,30.18c-2.16,4.26-4.05,8.61-5.64,13.17l-38.22,4.89v65.19s38.22,4.89,38.22,4.89Z"/>
    <polyline class="cls-1" points="371.7 453 371.7 401.79 371.7 354.48 371.7 269.31 371.7 194.64"/>
    <path class="cls-1" d="m371.7,401.79s0-94.62,77.64-94.62c0,0,26.73,73.38-77.64,94.62Z"/>
    <path class="cls-1" d="m371.7,354.48s0-94.62-77.67-94.62c0,0-26.7,73.38,77.67,94.62Z"/>
    <path class="cls-1" d="m371.7,269.31s0-61.11,50.16-61.11c0,0,17.25,47.37-50.16,61.11Z"/>
  </g>
</svg>