<svg width="117" height="99" viewBox="0 0 117 99" fill="none" xmlns="http://www.w3.org/2000/svg">
<g clip-path="url(#clip0_1_109)">
<path d="M29 71.8V92.14C29 92.88 28.83 93.58 28.52 94.2C27.72 95.86 25.98 97 23.97 97H11V66.95H23.97C26.19 66.95 28.07 68.33 28.74 70.26C28.91 70.74 29 71.26 29 71.8Z" fill="#00B971"/>
<path d="M75.83 34.72C75.83 45.19 69.38 53.68 61.41 53.68C53.44 53.68 47 45.19 47 34.72C47 28.22 52.55 17.19 56.76 9.75C57.83 7.86 58.82 6.2 59.6 4.9C60.7 3.09 75.83 24.25 75.83 34.72Z" fill="#00B971"/>
<path d="M24.75 31.96C24.75 38.24 20.56 43.32 15.41 43.32C10.26 43.32 6.07996 38.24 6.07996 31.96C6.07996 25.68 15.41 12.35 15.41 12.35C15.41 12.35 24.75 25.69 24.75 31.96Z" fill="#00B971"/>
<path d="M28.54 94.2C28.54 94.2 58.48 94.35 70.28 93.81C82.09 93.26 90.8 84.56 90.8 84.56L113.69 62.8C116.48 59.79 113.78 49.64 107.04 55.44L92.34 66.45C87.33 70.2 81.24 72.22 74.98 72.22H57.76" stroke="black" stroke-width="4" stroke-linecap="round" stroke-linejoin="round"/>
<path d="M28.75 70.26H29.44C42.1 70.4 41.83 61.02 53.94 61.71H62.92C71.58 61.75 73.25 72.22 69.81 72.22" stroke="black" stroke-width="4" stroke-linecap="round" stroke-linejoin="round"/>
<path d="M28.75 70.26C28.11 68.33 26.29 66.95 24.15 66.95H2.71997V97H24.15C26.09 97 27.77 95.86 28.54 94.2C28.84 93.58 29 92.88 29 92.14V71.8C29 71.26 28.91 70.74 28.75 70.26Z" stroke="black" stroke-width="4" stroke-linecap="round" stroke-linejoin="round"/>
<path d="M75.83 34.72C75.83 45.19 67.33 53.68 56.84 53.68C46.35 53.68 37.86 45.19 37.86 34.72C37.86 24.25 56.84 2 56.84 2C56.84 2 75.83 24.25 75.83 34.72Z" stroke="black" stroke-width="4" stroke-linecap="round" stroke-linejoin="round"/>
<path d="M24.75 31.96C24.75 38.24 19.65 43.32 13.37 43.32C7.09 43.32 2 38.24 2 31.96C2 25.68 13.37 12.35 13.37 12.35C13.37 12.35 24.75 25.69 24.75 31.96Z" stroke="black" stroke-width="4" stroke-linecap="round" stroke-linejoin="round"/>
<path d="M110 31.96C110 38.24 105.81 43.32 100.66 43.32C95.51 43.32 91.33 38.24 91.33 31.96C91.33 25.68 100.66 12.35 100.66 12.35C100.66 12.35 110 25.69 110 31.96Z" fill="#00B971"/>
<path d="M110 31.96C110 38.24 104.9 43.32 98.62 43.32C92.34 43.32 87.25 38.24 87.25 31.96C87.25 25.68 98.62 12.35 98.62 12.35C98.62 12.35 110 25.69 110 31.96Z" stroke="black" stroke-width="4" stroke-linecap="round" stroke-linejoin="round"/>
</g>
<defs>
<clipPath id="clip0_1_109">
<rect width="116.78" height="99" fill="white"/>
</clipPath>
</defs>
</svg>
