<svg width="118" height="103" viewBox="0 0 118 103" fill="none" xmlns="http://www.w3.org/2000/svg">
<g clip-path="url(#clip0_1_130)">
<path d="M78.19 4.77C78.19 4.77 82.09 19.45 66.86 23.71C66.86 23.71 66.86 4.77 78.19 4.77Z" fill="#00B971"/>
<path d="M50.3001 14.24C62.0501 14.24 62.0501 33.18 62.0501 33.18C46.2601 28.92 50.3001 14.24 50.3001 14.24Z" fill="#00B971"/>
<path d="M60.44 82.72C62.28 85.6 63.68 88.82 64.57 92.3C65.28 95.05 65.65 97.95 65.65 100.95H8.65002C8.65002 83.49 21.4 69.34 37.15 69.34C46.77 69.34 55.28 74.62 60.44 82.72Z" fill="#00B971"/>
<path d="M53.31 52.02C53.31 61.58 46.07 69.34 37.14 69.34C28.21 69.34 20.98 61.58 20.98 52.02C20.98 42.46 28.21 34.69 37.14 34.69C46.07 34.69 53.31 42.45 53.31 52.02Z" fill="#00B971"/>
<path d="M104.75 48.9C104.75 57.38 98.5001 64.26 90.7801 64.26C83.0601 64.26 76.8101 57.38 76.8101 48.9C76.8101 40.42 83.0601 33.55 90.7801 33.55C98.5001 33.55 104.75 40.42 104.75 48.9Z" fill="#00B971"/>
<path d="M115.42 92.27H71.94L64.63 93.01C63.77 89.53 64.5 90.54 62.71 87.66C65.65 80.66 71.94 74.22 71.94 74.22C76.46 68.13 83.22 64.26 90.78 64.26C104.39 64.26 115.41 76.8 115.41 92.27H115.42Z" fill="#00B971"/>
<path d="M33.82 69.34C16.24 69.34 2 83.49 2 100.95H65.65C65.65 97.95 65.23 95.05 64.44 92.3C63.45 88.82 61.88 85.6 59.83 82.72C54.06 74.62 44.56 69.34 33.82 69.34Z" stroke="black" stroke-width="4" stroke-linecap="round" stroke-linejoin="round"/>
<path d="M51.87 52.02C51.87 61.58 43.79 69.34 33.82 69.34C23.85 69.34 15.78 61.58 15.78 52.02C15.78 42.46 23.85 34.69 33.82 34.69C43.79 34.69 51.87 42.45 51.87 52.02Z" stroke="black" stroke-width="4" stroke-linecap="round" stroke-linejoin="round"/>
<path d="M65.65 92.27H115.42C115.42 76.8 102.8 64.26 87.22 64.26C78.56 64.26 70.82 68.13 65.65 74.22C65.65 74.22 62.66 77.3 59.83 82.72V82.73" stroke="black" stroke-width="4" stroke-linecap="round" stroke-linejoin="round"/>
<path d="M103.21 48.9C103.21 57.38 96.05 64.26 87.22 64.26C78.39 64.26 71.23 57.38 71.23 48.9C71.23 40.42 78.39 33.55 87.22 33.55C96.05 33.55 103.21 40.42 103.21 48.9Z" stroke="black" stroke-width="4" stroke-linecap="round" stroke-linejoin="round"/>
<path d="M62.05 62.18V33.18V23.71V2" stroke="black" stroke-width="4" stroke-linecap="round" stroke-linejoin="round"/>
<path d="M62.0499 33.18C62.0499 33.18 62.0499 14.24 46.0999 14.24C46.0999 14.24 40.6099 28.92 62.0499 33.18Z" stroke="black" stroke-width="4" stroke-linecap="round" stroke-linejoin="round"/>
<path d="M62.05 23.71C62.05 23.71 62.0501 4.77 78.0101 4.77C78.0101 4.77 83.5 19.45 62.05 23.71Z" stroke="black" stroke-width="4" stroke-linecap="round" stroke-linejoin="round"/>
</g>
<defs>
<clipPath id="clip0_1_130">
<rect width="117.42" height="102.95" fill="white"/>
</clipPath>
</defs>
</svg>
