<svg width="104" height="120" viewBox="0 0 104 120" fill="none" xmlns="http://www.w3.org/2000/svg">
<path fill-rule="evenodd" clip-rule="evenodd" d="M43.8845 0C41.4903 0 39.5495 1.94659 39.5495 4.34782C39.5495 6.74906 41.4903 8.69565 43.8845 8.69565C72.1358 8.69565 95.038 31.6654 95.038 60C95.038 88.3346 72.1358 111.304 43.8845 111.304C30.3977 111.304 17.7471 106.052 8.26194 96.8195C6.54388 95.1472 3.79939 95.1883 2.13194 96.9115C0.4645 98.6346 0.505529 101.387 2.22359 103.06C13.3108 113.852 28.1202 120 43.8845 120C76.9242 120 103.708 93.1371 103.708 60C103.708 26.8629 76.9242 0 43.8845 0Z" fill="url(#paint0_linear_16_253)"/>
<defs>
<linearGradient id="paint0_linear_16_253" x1="52.3079" y1="120" x2="52.3079" y2="0" gradientUnits="userSpaceOnUse">
<stop stop-color="#00B971"/>
<stop offset="1" stop-color="#0DFF6E"/>
</linearGradient>
</defs>
</svg>
